<?xml version="1.0" encoding="utf-8"?>
<svg viewBox="0 0 650 180" width="650" height="180" xmlns="http://www.w3.org/2000/svg">
  <rect stroke="#000" id="svg_1" width="641.312" height="171.256" style="fill: rgb(19, 170, 82); paint-order: fill; stroke-width: 0px;" x="2.724" y="3.405"/>
  <g transform="matrix(0.1, 0, 0, -0.1, 0, 180)" fill="#363636" stroke="none">
    <path d="M0 900 l0 -900 3250 0 3250 0 0 900 0 900 -3250 0 -3250 0 0 -900z m1649 614 c21 -26 21 -35 21 -576 l0 -549 -25 -24 c-43 -43 -108 -25 -126 34 -7 24 -9 218 -7 569 l3 534 24 19 c35 28 85 25 110 -7z m-319 -54 c11 -11 20 -33 20 -50 0 -17 -9 -39 -20 -50 -19 -19 -33 -20 -310 -20 l-290 0 0 -175 0 -175 259 0 c232 0 261 -2 279 -17 32 -27 37 -64 12 -96 l-21 -27 -265 0 -264 0 0 -220 c0 -141 -4 -228 -11 -244 -26 -57 -115 -55 -138 3 -8 18 -11 180 -9 540 l3 513 24 19 c22 18 43 19 367 19 331 0 345 -1 364 -20z m1075 -300 c71 -34 128 -96 154 -164 20 -53 21 -76 21 -332 0 -175 -4 -283 -11 -295 -15 -29 -52 -40 -89 -28 -34 12 -50 35 -50 73 l0 26 -47 -34 c-107 -77 -276 -100 -379 -52 -160 74 -192 274 -63 390 76 68 115 78 318 84 l174 4 -6 50 c-11 93 -56 141 -147 158 -64 12 -148 5 -238 -21 -74 -21 -108 -13 -118 26 -17 66 9 88 150 126 103 28 262 22 331 -11z m1785 1 c154 -59 245 -186 257 -363 14 -197 -70 -357 -227 -432 -62 -29 -71 -31 -185 -31 -142 0 -203 20 -280 87 -80 70 -118 146 -135 270 -27 188 61 378 207 449 106 52 258 60 363 20z m1910 9 c26 -26 26 -81 2 -104 -11 -9 -49 -20 -90 -25 -82 -10 -142 -41 -191 -96 l-31 -36 0 -258 c0 -246 -1 -260 -21 -285 -25 -32 -75 -35 -110 -7 l-24 19 0 382 0 382 24 19 c56 46 131 6 131 -69 l0 -36 44 43 c59 58 128 90 194 91 39 0 57 -5 72 -20z m-3244 -11 c10 -11 74 -159 141 -327 l121 -307 19 45 c11 25 68 168 127 318 70 175 115 276 126 282 35 19 77 12 99 -16 12 -15 21 -35 21 -45 0 -37 -299 -733 -323 -751 -30 -24 -108 -24 -136 -1 -23 19 -308 683 -318 741 -12 67 77 111 123 61z m1912 -2 c20 -21 21 -33 24 -297 3 -254 5 -278 23 -309 36 -61 67 -76 153 -76 66 0 84 4 124 27 25 15 67 48 92 74 l46 46 0 257 c0 245 1 258 20 279 27 29 83 29 110 2 19 -19 20 -33 20 -398 0 -367 -1 -379 -20 -400 -27 -29 -76 -29 -107 0 -17 16 -23 32 -23 66 l0 44 -50 -45 c-75 -67 -129 -90 -232 -95 -80 -4 -93 -2 -143 22 -66 33 -118 91 -145 163 -18 49 -20 78 -20 338 0 272 1 286 20 305 28 28 81 26 108 -3z"/>
    <path d="M2143 700 c-54 -11 -100 -35 -113 -59 -5 -11 -10 -38 -10 -61 0 -93 109 -142 235 -105 65 19 96 36 143 79 30 28 32 35 32 93 l0 63 -122 -1 c-68 -1 -142 -5 -165 -9z"/>
    <path d="M3973 1040 c-134 -27 -211 -145 -201 -306 11 -175 119 -274 283 -261 104 8 174 59 217 155 23 51 28 173 10 237 -35 123 -173 202 -309 175z"/>
  </g>
</svg>